<?xml version="1.0" encoding="UTF-8"?>
<svg id="Layer_2" data-name="Layer 2" xmlns="http://www.w3.org/2000/svg" viewBox="0 0 151.55 49.14">
  <g id="Layer_1-2" data-name="Layer 1">
    <path d="M41.76,29.43c2.26.23,1.52,1.97,2.47,2.68.25.19,1.05-.03,1.29-.23l1.39-6.16c1.82-1.11,3.71.46,4.5-.53,1.13-1.4-2.18-3.3-4.56-3.99l-10.37-3-7.87-2.11c-.88-.24-1.7-.68-2.65-1.2,1.13-.65,2.06-.54,3.23-.24l16.23,4.11c1.61.41,2.79.28,4.23-.72s4.09,1.16,8.58.34c1.62-.3,2.12,2.33,4.78,1.67,3.86-.96,7.68-1.33,11.64-.4.49.11.84,1.28.72,1.74-.15.57-.75,1.37-1.44,1.53-2.96.69-5.86,1.01-8.84.46-.84-.16-1.87-.34-2.72-.31-.72,1.11-1.01,2.87-.04,3.94.59.65,2.23.8,3.09.96,2.5.48,4.06,2.34,3.52,4.87-.08.36.58,1.01.93,1.01h9.78c3.41,0,4.59-1.8,5.16-5,4.79.29,3.76-4.03,5.42-4.62,1.42-.5,2.91,1.56,4,.9l2.77-1.68c.37-.23.38-1.27.31-1.68-.56-3.35-.95-6.49-.97-9.99,3.16,3.3.73,9.03,3.85,11.92.07-1-.55-2.36.35-2.95,1.12-.74,3.75.56,4.71-.33.28-.26.68-1.05.69-1.48l.08-5.04c.01-.78-1.12-1.68-1.64-1.76-.02.71-.03,1.24-.16,1.62s-1.31.26-1.53-.09c-.46-.72-.77-1.73-.73-2.54.29-.28,1.23-.64,1.64-.62,1.4.07,2.67-1.04,2.45-2.5l-1.18-7.99c1.18.49,1.55,2.19,1.94,2.01l.96-.44c.81,1.73-.85,3.15,1.22,5.07-.53,1.03-1.2,2.21-1.12,3.38l5.34.31c1.02,2.54-2.37,1.1-2.81,2.63-.47,1.64,3.44.6,2.47,3.49l-1.25,3.72c-.07.22.34.86.53.96.69.34,1.48-2.9,2.37-2.01l.76.76c.16.16.47-.52.68-.68,1.39-1.13,3.42-1.53,5.2-1.43,2.12.12,3.39,1.39,4.65,2.87,1.37,1.63,2.57,3.07,3.14,5.22l2.79.02c1.55.01,2.41.81,2.75,2.38,3.64-.29,7.27-.05,10.95.14l4.78.25c.33.02.94.17,1.16.36.26.23.24,1.02.13,1.5-5.76,6.42-11.93,12.16-18.61,17.59-1.07.67-2.06,1.01-3.4,1.01l-50.16-.07h-6.75s-67.35.08-67.35.08c-1.49,0-2.4.08-3.94-.27l.07-2.99-1.14-2.8c-.6-1.47.29-2.99.97-4.18,1.33-2.33,3.61-3.07,6.26-2.53l1.06.22c.69.14-1.05,1.6-.71,2.11.14.22,1.02.31,1.16.09,1.09-1.68.58-4.13,3.49-3.77,2.5.3,4.98.33,7.49.29l4.52-.07c1.35-.02,2.31-2.83,3.68-2.68s2.04,1.85,3.1,1.88c.89.03,1.66-2.15,3-2.33,1.49-.2,3.07,3.36,4.26,1.91,1.46-1.78.25-4.89,3.28-4.58Z"/>
  </g>
</svg>