<?xml version="1.0" encoding="UTF-8"?>
<svg id="Layer_2" data-name="Layer 2" xmlns="http://www.w3.org/2000/svg" viewBox="0 0 81.03 67.3">
  <g id="Layer_1-2" data-name="Layer 1">
    <path d="M32.37,52.56c-.09-.29-.36-.77-.52-.86-.21-.11-.79.09-1,.27l-9.34,8.22-5.52,5.36c-1.26,1.23-3.02,1.86-4.78,1.74l-4.67-.32c-.79-.05-1.65-1.62-1.92-2.37-1.1-3.11-3.88-2.3-4.53-3.83-.21-.51-.03-1.68.37-2.05l6.56-6.04,10.84-10.33c3.92-3.73,8.4-6.43,13.33-8.73,2.39-1.12,4.48-2.61,6.49-4.37l17.79-15.63c3.86-3.39,7.7-6.34,12.34-8.6l12.01-5.01.99.26c.23.06.29.96.15,1.2l-2.09,3.51c-5.19,7.24-10.82,13.91-17.3,20.02l-15.4,13.31c-1,.86-2.49,2.03-2.08,3.5.49,1.79,1.6,3.39,2.62,4.95l9.13,13.98c1.05,1.61,2.49,2.19,4.41,2.12,1.14-.04,1.74,1.3,1.67,2.19-.09,1.17-.91,2.05-2.3,2.05h-27.42c-1.34,0-2.18-.63-2.18-1.72,0-1.21.63-2.28,2.17-2.05.74.11,2.13-.08,2.72-.53.19-.29.17-1.21.06-1.56l-2.6-8.66ZM40.28,59.99c.39,1,1.08,2.23,2.01,2.51,1.7.51,3.56.34,5.2-.4-1.87-6.03-4.49-11.55-7.62-16.72-1.78,2.13-4.44,2.13-3.37,4.88l3.79,9.73Z"/>
  </g>
</svg>