<?xml version="1.0" encoding="UTF-8"?>
<svg id="Layer_2" data-name="Layer 2" xmlns="http://www.w3.org/2000/svg" viewBox="0 0 67.74 65.43">
  <g id="Layer_1-2" data-name="Layer 1">
    <path d="M15.4,65.32c-.22.13-1.01.14-1.22.05-.26-.11-.61-.8-.55-1.1l.69-3.36-6.03.77c-.55.07-1.58-.88-1.48-1.39l.94-5.01-2.76,1c-.69.25-1.82-.12-2.16-.73-.28-.5-.24-1.59.22-2.12l2.35-2.71c1.95-2.24,4.24-4.12,6.73-5.85.66-.46,2.62-.19,2.76-1.39l.37-3.14c.22-1.91-.82-3.5-2.68-3.93l-3.4-.79c-3.09-.72-5.94-1.75-9.18-1.71l.02-9.14c1.25-.93,2.49-1.87,3.38-3.04l2.57-3.38c.32-.42,1.13-.55,1.46-.29.53.41.45,1.15.17,1.66l-1.01,1.81,2.73-1.52c.4-.22,1.29-.14,1.58.18.95,1.06-.75,2.07-.48,3.41.09.46.79,1.37,1.28,1.46l14.59,2.68c.88.16,1.9-.1,2.6-.6l6.88-6.01c.41-.09,1.55-.25,1.86,0,.35.29.64.76,1.2,1.57l3.82-3.6,7.29-7.74c4.38-4.65,9.23-8.43,15.04-11.18.35-.16,1.06-.23,1.38-.14.37.11.66,1.04.47,1.49-2.86,7.05-7.02,13.16-12.18,18.69l-5,5.36c-.49.53-.94,1.48-1.21,2.16,1.1.29,1.99.44,2.72,1.06.44.38.06,1.68-.23,2.18l-2.82,4.78c-.46.78-.49,2.18.1,2.9l4.8,5.82,2.09,2.66,2.77.14v2.31c-.02,1.13,1.08,1.92,1.84,2.65,1.02.98,2.1,1.6,3.4.66l2.93-2.12c.27-.2.64-.35.89-.39.3-.05,1,.78.78,1.05l-2.96,3.67c-1.91,2.37-4.43,3.83-6.94,5.68-.58.42-2.01,0-2.54-.38-2.77-2.03-3.85,1.82-6.17,3.27-1.35.85-3.11.24-4.24-.36-1.59-.85-1.77-1.98-1.5-3.59.18-1.07-1.46-1.62-2.22-1.92-3-1.2-5.67-1.5-8.81-1.18-2.06.21-5.22-1.58-6.73-1.05-1.19.42-.69,4.08-5.07,6.68l-5.13,3.05Z"/>
  </g>
</svg>