<?xml version="1.0" encoding="UTF-8"?>
<svg id="Layer_2" data-name="Layer 2" xmlns="http://www.w3.org/2000/svg" viewBox="0 0 44.71 88.33">
  <g id="Layer_1-2" data-name="Layer 1">
    <path d="M22.97,88.31l-3.31.02-1.5-.47c-.48-.15-.62-1.44-.4-2,.6-1.51,3.76-.86,5.74-3.9,1.1-1.69.64-3.64-1.06-4.74-.56-.37-.72-1.45-.75-2.16l-.33-8.97c-.03-.91.11-2.45-.44-3.09-1.27-1.51-1.66-2.78-1.57-4.74-.39-.78-1.18-2.09-1.19-2.98l-.08-5.61c-.02-1.21-.04-2.57-.67-3.56-.3-.25-1.1-.55-1.07-.88l.14-1.5.33-3.41c.04-.41.07-1.35-.16-1.65-.2-.26-.69-.45-1.32-.72-.28-2.17-1.06-4.92-.3-7.13.68-1.96,1.09-3.49-.09-5.3-2.13-3.28-6.92-1.46-12.79-4.03-1.31-.57-2.76-2.19-1.89-3.51l3.08-4.71c1.31-2,3.32-3.39,5.51-4.25l1.55.19c2.68-1.76,5.53-2.92,8.48-4.03.53-1.61,1.09-3.53,2.71-4.35,2.11-1.06,4.81-1.09,6.97-.2,1.9.78,2.42,2.74,3.15,4.41,1.55,3.53-1.56,3.84-1.41,4.86.04.29.48.89.76,1.06l6.07,3.92c3.31,2.52,5.13,5.96,5.66,10.02l1.75,7.98c.36,1.62.16,3.13-.48,4.63l-1.26,2.97c-.4.94-1.08,1.65-2.06,2.16.17,1.47.29,3.49-.68,4.81l-1.53,1.83c1.2,2.53,2.57,7.15,1.66,8.55-.77,1.18-1.13,2.12-.92,3.51l.93,6.27.87,6.89c.05.42-.22,1.29-.48,1.58-2.16,2.42-2.18,5.6-.31,8.21.39.55.46,1.72.18,2.33-.23.51-1.18,1.21-1.8,1.18l-2.85-.14c-1.01-.05-2.14-.63-2.04-1.88l.54-7.18c.06-.87-.7-1.88-1.27-2.37-1.3-1.11-.91-2.59-.94-3.99-.12-4.71-.85-9.18-2.51-13.46l-.02,2.14,1.05,10.98c.22,2.34-.34,4.23-1.59,6.06l1.21,6.78c.12.7.04,2.52-.61,2.61l-6.64.95Z"/>
  </g>
</svg>