<?xml version="1.0" encoding="UTF-8"?>
<svg id="Layer_2" data-name="Layer 2" xmlns="http://www.w3.org/2000/svg" viewBox="0 0 89.31 78.71">
  <g id="Layer_1-2" data-name="Layer 1">
    <path d="M43.44,75.23l-7.17-.27c-2.57-.1-5.03-.05-7.4-1.18-.79-.37-.9-1.8-.61-2.6.79-2.16,4.59-.33,7.88-3.57,1.31-1.29,2.98-3.76,2.01-5.61-.79-1.51-2.08-2.4-1.51-4.52.42-1.55.42-3.51.61-5.19l.87-7.42c.38-3.26,3.12-5.67,6.56-5.45,2.9.18,5.65,1.09,8.67,1.71.72-1.18.72-2.81-.14-4.06-2.4.46-4.8,1.04-7.11.32-2.18-.68-3.24-2.72-4.74-4.2l-3.3-3.25-1.7,1.51c-.68.6-1.65.35-2.46,0-2.82-1.22-5.54-2.4-7.88-4.4-4.11-3.53-2.16-7.8-8.18-8.05l-4.48-.19c-1.11-.05-2.98-.15-3.56-1.11-.62-1.02-.97-1.78-2.27-1.78H1.13c-.46-.01-1.1-.82-1.13-1.26-.03-.54.73-1.38,1.32-1.32l2.56.27c1.47.15,3.03.15,4.48-.03-.87-2.39-.47-4.48.76-4.5,1.68-.03.21,3.77,3.16,3.84l5.97.13,6.29.21c1.27.04,2.68.19,3.99-.03.94-.16.08-2.53,1.03-3.48.3-.3,1.34-.5,1.74-.29,1.99,1.07,4.11,1.03,6.36.87,2.59-.18,5.18.22,7.79.58.43.06,1.21.9,1.09,1.31l-.55,1.88,5.71.91-1.18-4.09c-.15-.52.05-1.8-.39-2.28-.86-.93-1.79-2.82-1.01-4.38C50.5,1.57,53.35.14,56.3.01c4.7-.21,8.34,2.71,9.41,7.19.26,1.08.94,2.25-.31,3.09l-1.26.85c-.35.24-.35,1.52.05,1.67,1.27.2,3.1.22,4.12.91,1.84,1.26,1.6,2.84,6.36,1.07,3.02-1.12,6.08-.43,8.26,1.94,1.98,2.15,3.33,4.75,4.05,7.62l1.95,7.78c.76,3.04.08,6.45.22,9.74-2.49,3.7-5.85,3.14-6.35,4.04-.18.32-.04,1,.06,1.53.28,1.52-.1,3.14-.33,4.7l-.56,3.72c-.05.33-.03,1.28-.34,1.39s-.97.18-1.29.11-.56-.88-.54-1.23l.25-6.25c-1.95.35-3.05,1.8-3.53,3.59-.56,2.07-2.19,3.51-3.66,4.95s-2.25,3.12-3.35,4.74c-.36.53-.68,1.14-.51,1.78,5.8.76,11.02,1.61,15.95-1.7.68-.46,2.03-.66,2.7-.23.56.35,1.46,1.37,1.46,2.18l.07,13.14c-.95.3-2.02.58-2.99.27-1.2-.38-.18-4.04-2.29-5.74-.74-.6-2.15-.78-3.04-1.01-1.82-.47-2.92.1-4.18,1.34-1.11,1.1-2.94,2-4.56,2.28l-8.86,1.56c-2.65.47-5.41.43-7.84-.79-2.07-1.04-2.79-3.36-2.65-5.66.26-4.37,1.4-8.52,2.86-12.63.4-1.13-.11-1.95-1.18-2.48l-5.77-2.85-.56-.33c-.16-.09-.6.48-.62.7l-.54,6.49c-.13,1.53-.86,2.41-2.07,3.1-.96,4.18.92,9.98,0,12.02-.16.36-1.04.66-1.47.64ZM49.61,22.58c.15-.25.15-1.13-.12-1.25l-.94-.4c-2.38-1.01-4.6-1.69-7.42-1.92,1.38,2.51,4.05,5.52,6.2,5.16.92-.15,1.8-.76,2.29-1.59Z"/>
  </g>
</svg>