<?xml version="1.0" encoding="UTF-8"?>
<svg id="Layer_2" data-name="Layer 2" xmlns="http://www.w3.org/2000/svg" viewBox="0 0 37.4 93.26">
  <g id="Layer_1-2" data-name="Layer 1">
    <path d="M18.6,81.37c-1.77-5.75-6.37-9.49-7.05-16.05l.62-2.34-1.83-1.03c-.05,2.36-.5,4.28-1.33,6.48-.6,1.57-.59,3.72-.72,5.28-1.37,1.04-1.88,1.95-2.1,3.6l-1.88,14.22c-.08.6-.4,1.2-.77,1.38-.49.23-1.68-.12-1.59-.8l2.25-16.32c.07-.49-.06-1.31-.26-1.66-.66-1.11-3.52.34-3.88-1.39-.52-2.52,2.64-1.4,3.48-2.97.78-1.45-.5-4.29-.35-8.33l.2-5.31-.03-5.02c0-1.27.18-2.33.93-3.35,1.19-1.61,1.34-3.99.71-5.89,1.67-3.45-.76-5.86-.01-9.29.96-.92,2.47-.06,3.6-.76,1.06-.65-.08-3.75,1.14-7.6.55-1.72,1.71-2.83,3.01-4.02,1-.92,1.1-2.57,1.41-3.88.11-.49.38-1.17.37-1.53-.05-1.1-2.84-1.96-2.47-5.27.14-1.21-.44-2.52-1.38-3.37C10.79,2.17,14.1-.15,17.94,0c2.95.12,5.68,1.41,6.18,4.55.77,4.79-2.66,6-.91,7.49l3.19,2.73c2.16,1.85,4.81-.11,5.69,2.43l1.79,5.18.66,4.09c.19,1.18,4.75,4.64,1.96,9.75-.67,1.23-.88,2.53-1.09,3.95-.38,2.65-4.3,1.87-5.38,2.78-.39.33-.77,1.37-.74,1.92.17,3.08-.96,5.39-2.37,7.94-.96,1.73-.4,4.15-1.01,6.02-.89,2.76-1.6,5.43-.54,8.25l2.67,7.11c.61,1.62,1.35,3.51,1.29,5.13-.67.99-1.03,1.79-.7,2.89l2,6.7c.38,1.27.07,2.65-1.31,3.15-2.01.73-4.2.81-6.36.91l-3.92.19c-2.43.12-4.84.21-7.17-.63-.87-.31-1.04-1.65-.78-2.43.76-2.29,4.18-.66,6.45-2.9,1.55-1.53,1.7-3.82,1.07-5.86Z"/>
  </g>
</svg>