<?xml version="1.0" encoding="UTF-8"?>
<svg id="Layer_2" data-name="Layer 2" xmlns="http://www.w3.org/2000/svg" viewBox="0 0 87.68 92.56">
  <g id="Layer_1-2" data-name="Layer 1">
    <path d="M0,12.26v-1.48c1-.33,2.15-.38,3.34-.27l3.64.35c.3.03,1.16-.03,1.19-.32l.11-1.08.2-1.78c.03-.3,1.15-.19,1.19.11l.15,1.14c.07.51.17,1.28.36,1.62s1.07.63,1.5.63l3.45.04c2.02.02.79-2.88,3.74-2.44l3.45.52,2.31.44.29-1.35c.12-.56,5.15-1.46,8.65.96.29.2.98.81.82,1.1l-.76,1.42,3.02.74-.1-2.03c-.02-.35.12-1,0-1.28-.27-.63-2.66-.86-2.29-1.98l1.12-3.41C36.66.04,43.02-.99,46.17.97c2.49,1.54,3.95,4.6,3.6,7.45-.59.59-1.51,1.66-1.51,2.38.59,1.21,2.5.12,4.23,2.24,1.54,1.88,2.54-1.12,3.86-.05.6.48,1.45.97,2.12.84,1.8-.34,3.97-.11,4.98,1.63,1.27,2.2,1.99,4.81,2.2,7.36.27,3.2,1.49,5.95,2.24,9.04.61,2.53.18,5.34.18,7.9-2.91,1.18-4.27,3.85-3.64,6.81.48,2.24-1.46,2.6-.33,6.38l2.08,6.98c.4,1.33.13,3.07.25,4.44.13,1.52,1.81,2.09,2.95,2.57,2.12.9,3.83,2.26,5.73,3.47l3.32,2.11c1.32.84-.35,3.23,2.79,4.89l5.31,2.81c.59.31,1.19,1.33,1.16,1.88-.02.5-.46,1.54-.91,1.89-1.67,1.3-2.41,3.18-3.23,5.18-1.12,2.7-4.8,3.53-7.35,2.53-.74-.29-1.2-1.15-1.16-1.78.14-1.87,3.15-1.51,3.02-4.97-.06-1.62-.73-4.26-2.55-4.74s-3.71-.84-5.31-2.08c-2.54-1.96-5.14-3.4-8.1-4.74-4.01-1.81-2.81-3.68-5.35-7.73-1.22-1.95-2.07-3.77-3.01-6.01-2.27,1.29-2.57,4.55-6.08,4.72-.95.05-1.7,1.1-1.4,2.03,1.12,3.53,2.1,6.9,2.85,10.55.43,2.12-1.81,3.66-1.46,5.01l1.79,6.94c.21.81.48,2.47-.48,2.9-1.92.86-4.24.57-6.18-.04-3.06,1.03-6.18,1.17-9.24-.2-.59-.26-.69-1.74-.46-2.34.86-2.3,5.75-.02,8.53-5.03.7-1.25.22-2.76-.92-3.59-.97-.7-1.3-1.64-1.34-2.85-.09-2.59-.74-5.21-2.03-7.48s-2.02-5.02-.79-7.65c2.67-5.75,5.87-11.13,9.59-16.27l-1.37-4.19c-.63-1.92-1.82,1.42-2.64.32-2.32-3.13-4.39-2.62-4.55-7.14-.04-1.21.76-2.73,1.57-3.03.22-.08.25-.81.07-.8-1.36.12-4.7,1.9-7.11-1.45-1.41-1.96-2.74-4.04-3.72-6.27s-2.56-.58-3.29-1.63c-.21-.3-.32-1.13-.27-1.53l.33-2.79c-3.99-2.12-9.01-2.03-9.94-2.49-.59-.29.1-2.34-1.35-2.37l-6.13-.11-5.2-.1c-.9-.02-1.78-.19-2.49-.54Z"/>
  </g>
</svg>