<?xml version="1.0" encoding="UTF-8"?>
<svg id="Layer_2" data-name="Layer 2" xmlns="http://www.w3.org/2000/svg" viewBox="0 0 63.2 94.02">
  <g id="Layer_1-2" data-name="Layer 1">
    <path d="M26.82,94.02h-6.41l-.75-.3c-1.3-.33-1.97-1.03-1.92-2.38.12-2.95,5.37-.86,8.68-5.21,1.35-1.78,1.09-3.93-.8-5.18-.49-.33-1.5-1.15-1.56-1.71-.77-7.17-3.74-11.37-4-15.46-.23-3.59,3.37-8.71,6.02-11.77,2.95-3.41,6.55-3.06,6.61-5.21-2.67-.7-3.64-2.63-3.63-5.43-1.62,3.37-4.97,5.1-8.19,3.38-1.63-.87-2.72-2.48-3.26-4.27-1.4-4.7-1.76-9.55-1.74-14.46,0-1.17-.71-1.74-1.81-1.75-2.33-.03-3.93-2.11-3.96-4.42,0-.5-.23-1.39-.62-1.51-.41-.13-1.28-.04-1.76-.02l-6.31.15c-.51.01-1.18-.36-1.34-.72-.14-.31.08-1.37.42-1.39l2.85-.17c2.1-.12,1.43-2.59,2.43-2.33.9.24.73,2.07,2.67,2l2.21-.08c.89-.03,1.82-.04,2.61-.21-1-1.93-1.91-4.35-1.05-5.25s3.03.98,6.89-.17c1.02-.3,2.09.38,2.52,1.24,1.34,2.68,4.55-.42,5.99,1.29.39.46.44,1.78.62,2.5.64.4,2.2.16,2.8-.18l-.38-3.72c-.07-.66-.61-1.56-1.17-1.76-1.54-.54-1.61-1.74-1.27-3.01C29.43,1.87,31.19.05,36.02,0c2.47-.03,5,.39,6.7,2.28s2.62,4.22,2.17,6.73c-.97,1.62-2.83,1.44-2.06,3.91l3.02,1.08c.83.3,1.62.28,2.35-.45.94-.92,1.32,1.4,3.13,1.32,2.29-.1,4.62.44,6.19,2.19.76.85.94,2.26,1.41,3.33l1.42,3.24c.24,2.64.77,5.11,1.6,7.65,1.31,4,2.21,9.63-.56,12.24-1.37,1.29-3.26,1.22-4.93,1.85l-2.23.84c-.3.11-.7.71-.6,1,.4,1.2,3.11-.02,3.69,2.1.88,3.27.43,6.53-.85,9.68l-.15,2.3c-.69.82-2.41,1.12-3.05.15-.72-1.09-.79-2.57-.77-3.92,0-.56-1.21-1.55-1.51-.99-1.77,3.34-4.73,11.52-3.44,13.45.84,1.26,3.08.56,4.29,2.34,3.11,4.58,7.11,1.49,9.84,4.1,1.2,1.15.91,3.12.29,4.5-.56,1.25-.72,2.37-.34,3.66.87,2.95-.64,5.96-3.66,6.87-.74.22-1.97-.25-2.43-.7-1.74-1.69,1-3.48-1-7.77-.82-1.76-2.71-2.8-4.63-2.15-2.21.76-4.24.21-6.23-.92l-3.68-2.08c-2.32-1.03-4.18-2.42-4.36-5.24l-.55-8.58c-1.36-.51-3.31.34-3.32,1.88,0,1.7.86,3.37,1.42,4.98.76,2.18,1.17,4.34,1.46,6.68.25,2.02-2.03,2.76-1.28,5.39l2.19,7.72c.14.5-.14,1.75-.47,2.15s-1.22.81-1.84.84l-6.42.33Z"/>
  </g>
</svg>