<?xml version="1.0" encoding="UTF-8"?>
<svg id="Layer_2" data-name="Layer 2" xmlns="http://www.w3.org/2000/svg" viewBox="0 0 67.78 74.09">
  <g id="Layer_1-2" data-name="Layer 1">
    <path d="M24.81,60.27c-.84.87-1.19,1.91-.9,3.08l1.73,7.24c.35,1.46-.61,2.76-2.13,2.87l-7.79.57c-1.86.14-3.67.05-5.43-.66-.79-.32-1-1.56-.86-2.37.42-2.47,6.54-.41,8.54-6.95.31-1.01.69-2.75-.48-3.38-1.01-.54-1.66-.94-1.72-2.2-.22-4.8-.99-9.45-1.6-14.14-.35-2.73,1.81-4.73,4.34-5.1,4.52-.66,8.76.8,9.92.04.58-.38.82-2.11.08-2.69-.34-.27-1.13-.28-1.67-.26-1.77.09-3.29-1.31-3.85-2.91l-1.45-4.17c-.64-1.86-2.79-.67-3.57-1.52-1.21-1.31.4-4.5-2.54-8.03-1.14-1.37-2.66-2.93-4.27-3.68l-3.79-.13-5.89-.73c-.47-.06-.91-.11-1.19-.23-.33-.13-.4-1.5-.05-1.57,2.18-.5,4.67.51,5.48-.46.69-.84-.49-2.35.51-3.11.37-.28,1.36.27,1.41.74l.19,1.82c.94.71,2.02.58,3.18.54l6.11-.2,5.32-.18c.8-.03,1.46-.29,1.56-1.1.22-1.83-2.91-1.3-3.1-2.59-.29-1.96.19-3.98,1.22-5.52C23.63,1.04,26.21.31,28.76.05c3.76-.38,6.47,1.63,7.84,5.02.69,1.7.99,3.49-.71,4.83-.34.27-.5,1.3-.19,1.65s1.21.49,1.72.54c1.84,1.14,3.58,2.07,5.9,1.91,3.46-.24,8.38,1.53,10.63,3.76s.5,3.99,1.51,6.3,1.77,4.44,2.07,6.86l.96,7.77c.23,1.83-.8,3.05-2.33,3.75-1.29.59-2.5,2.02-3.82,2.43-1.62.5-2.74,1.14-2.56,3.11s-1.22,3.94-3.12,4.66c-2.29.86-3.48,2.4-3.97,4.81-.18.91-1.13,2.12-1.68,3.08l10.59-1.39c4.15-.54,6.53-5.08,9.56-4.38,1.03.24,2,1.33,2.11,2.39.23,2.14,1.25,3.5,2.78,4.8,2.49,2.11,2.07,6.1.08,7.09-.7.35-2.25.29-2.52-.35-1.59-3.85-5.17-5.61-9.11-4.49-.78.22-1.79.42-2.43.83.16,1.43-.49,2.59-1.88,2.92l-13.51,3.25c-2.72.65-6.13.78-7.79-1.06-1.29-1.43-1.47-3.33-1.31-5.23l2.37-12.26c-.03-.42-.45-1.31-.85-1.44l-4.18-1.33.61,6.93c.1,1.17.28,2.42-.75,3.49ZM26.19,25.16c-.08-2.56.29-4.72,1.06-7.21-1.08-.68-3.56.31-3.42,1.73.21,2.06,1.24,3.94,2.35,5.48Z"/>
  </g>
</svg>