<?xml version="1.0" encoding="UTF-8"?>
<svg id="Layer_2" data-name="Layer 2" xmlns="http://www.w3.org/2000/svg" viewBox="0 0 37.59 88.8">
  <g id="Layer_1-2" data-name="Layer 1">
    <path d="M19.13,85.88c-.16.72-1.7,1.05-2.36.98-1.93-.21-3.43.1-5.2.64-1.57.48-3.43.18-4.93-.69-.42-.24-.52-1.41-.33-1.85.77-1.84,3.62-.54,6.34-4.45,1.04-1.5.93-3.21-.45-4.55-1.84-1.77-.02-4.12-.26-6.12l-1.42-11.94c-.48-4-.57-7.88.76-11.76-1.25-2.39-1.47-4.78-.66-7.36.16-.52-1.13-1.28-1.43-.87-1.22,1.65-2.21,2.89-3.79,4.22l-.19,3.45c-.02.41-.02,1.23-.33,1.34l-1.43.54c.15.4.29,1.74-.16,1.9-1.18.41-2.4-.62-2.85-1.35-.71-1.16-.39-2.27-.11-3.49l1.26-5.51c.85-3.69,2.04-7.07,3.59-10.56.47-1.05.19-2.69.7-3.73l3.15-6.34c1.87-3.77,4.16-3.39,5.74-6.05l-1.37-2.77c-.81-1.63-1.59-3.88-1.63-5.74C13.37-.06,19.47-1.27,22.02,1.52c1.84,2.02,1.88,5.06.72,7.39-.46.94-.07,1.83.8,2.25,8.93,4.31,13.18,11.28,13.98,21.16.23,2.81-.13,6.01-1.66,8.43-.69,1.09-1.28,1.75-1.32,3.13-.08,2.58-1.15,4.76-2.9,6.56,2.08,3.64,2.14,7.38.77,11.08-.45,1.21.73,2.54.96,3.65l1.56,7.39c.15.73.63,2.02.37,2.63-4.91,4.59,1.07,10.37-1.03,12.58-1.48,1.56-5.22,1.16-6.31.05-.73-.75-.02-2.11.19-2.93.49-1.96.3-3.84.22-5.89-.03-.86-.33-1.8-1.02-2.15-1.55-.77-1.47-1.97-1.55-3.43-.13-2.5-.89-4.97-1.73-7.32l-2.46-6.88c-.73,4.8-1.18,9.42-.97,14.23.07,1.67-.51,2.81-2.21,3.46l.38,3.95c.16,1.65.72,3.12.31,5.04Z"/>
  </g>
</svg>