<?xml version="1.0" encoding="UTF-8"?>
<svg id="Layer_2" data-name="Layer 2" xmlns="http://www.w3.org/2000/svg" viewBox="0 0 92.95 49.1">
  <g id="Layer_1-2" data-name="Layer 1">
    <path d="M84.89,37.03c-1.15,2.39-3.33,3.71-5.68,4.2-1.42,3.6-4.33,6.67-8.1,7.6s-7.51-.31-9.42-3.63c-1.45-2.53-3.34-3.17-6.23-3.15l-20.83.12c-3.46.02-4.52,5.54-11.34,6.49-4.11.57-8.06-1.51-10.1-5.15-.71-1.26-1.5-2.01-3.18-1.94-1.07.05-3.12-.11-3.86-1l-3.45-4.14-2.69-2.92.02-14c1.49.15,3.32.21,4.22-.99,1.87-2.5,2.64,0,5.37-.46l.9-.15c.26-.04.54-.89.5-1.16-.34-2.27,1.14-4.78,3.76-4.79l12.58-.05h5.86s3.9-.32,3.9-.32c-1.55-.78-2.61-1.07-3.18-2.15s-.57-2.79.18-3.72l2-2.47c.88-1.09,2.26-1.27,3.48-1.13.55-.88,1.4-2.21,2.83-2.08l3.94.36c.59.05,1.98.14,2.22.67.78,1.71,1.95,2.77,3.99,2.8l5.17.06,5.32.28h8.1c7.05-.02,13.87-.95,20.86-1.96.36.07.86.73.93,1.05.08.38-.23,1.51-.64,1.54l-21.98,1.66-2.42.42-3.33.81c-.77,3.18-4.57,2.34-5.78,4.46-2.21,3.88-5.14,1.1-6.37,1.8-.33.19-.71.96-.59,1.34,2.05.59,3.58,1.56,5.04,2.87,2.22,1.98,5.22,1.76,7.97,1.27,3.47-.61,8.98.47,12.15,2.03,2.26,1.1,4.29,2.19,6.92,1.67,1.65,1.73.31,3.57.81,4.42.39.67,1.59.34,2.75,1.18.37.27.65,1.55.45,1.97l-3.03,6.3Z"/>
  </g>
</svg>