<?xml version="1.0" encoding="UTF-8"?>
<svg id="Layer_2" data-name="Layer 2" xmlns="http://www.w3.org/2000/svg" viewBox="0 0 98.12 53.07">
  <g id="Layer_1-2" data-name="Layer 1">
    <path d="M92.86,39.54c0,.28-.28,1.3-.52,1.18l-1.26-.62c-.74,1.03-1.32,2.49-1.76,3.9-1.84,5.94-7.11,9.66-13.34,8.81s-11.03-6.46-11.3-12.97l-9.48,1.69-3.29-1.52-6.42.38-8.84-.23c-.6-.02-1.36,1.22-1.42,1.82-.69,6.71-6.99,12.16-14.2,10.87-5.95-1.06-9.89-5.24-10.56-11.24.01-1.88-.46-3.55-2.65-3.78l-4.04-.42c-.3-.03-.9-.29-1.13-.47-.97-.75.6-2.33-1.13-3.71-.77-.61-1.91-1.84-1.41-2.89.55-1.15,2.3-1.5,3.43-1.84v-5.88s.15-4.4.15-4.4c.07-2.32,1.14-4.51,2.64-6.17s2.46-3.62,3.18-5.76l1.04-3.08C11.26,1.15,12.79.15,14.99.11l6.95-.11,10.98.24c1.86.04,3.23,1.89,3.38,3.63l.42,4.84.19,4.35c.05,1.24.78,1.98,1.87,1.92,1.3-.07,1.88-1.02,1.73-2.3l-1.33-11.26c-.07-.58,1.42-1.32,1.75-.85.85,1.2,1.51,3.01,3.01,3.37,1.82-.22,3.65-.74,5.25.45,1.29.96,1.85,2.95,1.42,4.57l-1.04,3.96c-.19.71.3,1.67.89,1.98.53.28,1.87.03,1.92-.68l.16-2.33c.04-.54,1.16-1.11,1.84-1.17l12.6-1.06c1.38-.12,2.19,1.22,2.13,2.39-.08,1.67,1.19,2.95,2.95,2.95l22.65.06c1.19,0,2.54,1.18,2.55,2.25v5.08c.01,1.61-.67,2.97-1.37,4.46l1.53,2.56c.95,1.58.72,3.84.57,5.68-.09,1.14-1.33,2.02-2.44,1.93-1.56-.12-2.69.73-2.7,2.53Z"/>
  </g>
</svg>